<?xml version="1.0" encoding="UTF-8" standalone="no"?>
<!-- Created with Inkscape (http://www.inkscape.org/) -->

<svg
   xmlns:dc="http://purl.org/dc/elements/1.1/"
   xmlns:cc="http://creativecommons.org/ns#"
   xmlns:rdf="http://www.w3.org/1999/02/22-rdf-syntax-ns#"
   xmlns:svg="http://www.w3.org/2000/svg"
   xmlns="http://www.w3.org/2000/svg"
   xmlns:sodipodi="http://sodipodi.sourceforge.net/DTD/sodipodi-0.dtd"
   xmlns:inkscape="http://www.inkscape.org/namespaces/inkscape"
   width="190mm"
   height="190mm"
   viewBox="0 0 673.2283 673.22835"
   id="svg2"
   version="1.1"
   inkscape:version="0.91 r13725"
   sodipodi:docname="cavalerie.svg">
  <defs
     id="defs4">
    <inkscape:path-effect
       effect="spiro"
       id="path-effect4202"
       is_visible="true" />
    <inkscape:path-effect
       effect="spiro"
       id="path-effect4198"
       is_visible="true" />
    <inkscape:path-effect
       effect="spiro"
       id="path-effect4190"
       is_visible="true" />
    <inkscape:path-effect
       effect="spiro"
       id="path-effect4182"
       is_visible="true" />
    <inkscape:path-effect
       effect="spiro"
       id="path-effect4178"
       is_visible="true" />
    <inkscape:path-effect
       effect="spiro"
       id="path-effect4174"
       is_visible="true" />
    <inkscape:path-effect
       effect="spiro"
       id="path-effect4166"
       is_visible="true" />
    <inkscape:path-effect
       effect="spiro"
       id="path-effect4158"
       is_visible="true" />
    <inkscape:path-effect
       effect="spiro"
       id="path-effect4150"
       is_visible="true" />
    <inkscape:path-effect
       effect="spiro"
       id="path-effect4138"
       is_visible="true" />
  </defs>
  <sodipodi:namedview
     id="base"
     pagecolor="#ffffff"
     bordercolor="#666666"
     borderopacity="1.0"
     inkscape:pageopacity="0.0"
     inkscape:pageshadow="2"
     inkscape:zoom="0.9"
     inkscape:cx="219.34619"
     inkscape:cy="390.76379"
     inkscape:document-units="px"
     inkscape:current-layer="layer1"
     showgrid="false"
     inkscape:window-width="1920"
     inkscape:window-height="1029"
     inkscape:window-x="464"
     inkscape:window-y="25"
     inkscape:window-maximized="1"
     fit-margin-top="0"
     fit-margin-left="0"
     fit-margin-right="0"
     fit-margin-bottom="0" />
  <metadata
     id="metadata7">
    <rdf:RDF>
      <cc:Work
         rdf:about="">
        <dc:format>image/svg+xml</dc:format>
        <dc:type
           rdf:resource="http://purl.org/dc/dcmitype/StillImage" />
        <dc:title></dc:title>
      </cc:Work>
    </rdf:RDF>
  </metadata>
  <g
     inkscape:label="Layer 1"
     inkscape:groupmode="layer"
     id="layer1"
     transform="translate(-120.94441,-275.13383)">
    <path
       style="fill:#000000;fill-opacity:1;fill-rule:evenodd;stroke:#000000;stroke-width:1px;stroke-linecap:butt;stroke-linejoin:miter;stroke-opacity:1"
       d="m 272,276.36133 31.99219,71.98047 3.49609,0.5 14.85547,-5.30469 15.16602,-13 8.67773,-18.43945 1.29883,-16.87891 z m 84.22656,10.00195 -2.46094,5.43945 -1.63867,21.30274 c -0.0273,0.36343 -0.12065,0.71885 -0.27539,1.04883 l -9.1875,19.51953 c -0.18044,0.38338 -0.44005,0.72419 -0.76172,1 l -16.07422,13.77929 c -0.27825,0.23908 -0.59799,0.4251 -0.94335,0.54883 l -16.07618,5.74024 c -0.45903,0.16391 -0.95108,0.21352 -1.43359,0.14453 l -5.0625,-0.72266 -7.02344,0.18164 -65.70508,273.28907 c 2.67632,-0.0878 5.68377,-0.19556 9.04688,-0.32227 l 6.7168,-0.89648 -0.17188,0.64062 c 13.69312,-0.56934 29.8135,-1.41011 40.49024,-2.53711 9.86487,-1.04129 19.64585,-1.06041 27.90039,-4.39258 13.78378,-5.5642 26.35707,-14.92157 36.86523,-25.7207 10.79935,-11.09838 18.63017,-25.24075 25.88867,-39.46094 5.27968,-10.34344 9.25731,-21.44666 12.41211,-32.74219 3.81098,-13.64492 7.88074,-42.7128 7.92774,-43.04882 l 0,-6.4336 c -1.56072,0.80632 -1.86806,1.06558 -4.2461,2.10352 -4.89064,2.13461 -10.69108,4.38142 -15.88086,4.10156 -9.66362,-0.52111 -20.12232,-4.68228 -26.31836,-12.63476 -4.27299,-5.48431 -5.73575,-13.1588 -3.97851,-19.83204 3.06063,-11.62297 11.58517,-24.17654 23.96094,-27.40039 10.38738,-2.70588 20.76426,3.74851 27.94921,9.79297 3.0289,2.54811 5.1214,6.53337 6.81641,10.01563 0.43815,0.90015 0.37375,0.88246 0.72461,1.67383 4.18523,-5.43393 17.10352,-22.17087 25.61133,-32.38672 15.41405,-18.50864 44.73647,-34.77475 66.81836,-51.33985 10.35634,-7.76898 9.27864,-21.86979 9.27864,-21.86979 0.47416,-5.7361 -0.70619,-10.56157 0.0378,-15.80013 C 490.27622,315.611 473.13202,312.0158 456,308.36133 c -33.30754,-7.1049 -66.56646,-14.43707 -99.77344,-21.99805 z m 157.68555,39.84244 c -2.83184,4.78488 -0.36123,7.17346 -1.41568,14.02774 -0.98884,6.42783 -5.39925,17.34559 -10.77963,21.38177 -21.11457,15.83943 -47.94363,31.30805 -62.85938,47.07227 l 52.24024,52.24219 133.25976,-53.09375 c -0.0361,-0.38005 -0.0871,-0.7592 -0.16797,-1.13477 -0.36296,-1.68505 -1.21043,-3.23591 -2.25195,-4.60937 -1.04152,-1.37346 -2.27723,-2.58607 -3.51172,-3.78907 C 591.91815,372.47129 548.69992,338.4138 513.91211,326.20572 Z M 434.9043,413.2207 c -9.9805,12.09583 -27.56836,34.99219 -27.56836,34.99219 -1.43667,1.87229 -4.37274,1.42951 -5.19336,-0.7832 0,0 -1.01944,-2.74137 -2.57422,-5.93555 -1.55478,-3.19418 -3.83139,-6.82942 -5.2832,-8.05078 -6.52809,-5.49186 -15.62013,-10.38964 -22.57422,-8.57813 -9.15822,2.38569 -17.06794,13.22698 -19.67383,23.12305 -1.22469,4.65084 -0.014,10.86221 2.91016,14.61524 4.74726,6.09301 13.79422,9.89438 21.91015,10.33203 2.90892,0.15686 8.59084,-1.61586 13.1582,-3.60938 4.56739,-1.99351 8.16016,-4.03906 8.16016,-4.03906 1.99934,-1.13792 4.48279,0.30499 4.48438,2.60547 l 0,11.48242 c 2.7e-4,0.13718 -0.009,0.27423 -0.0274,0.41016 0,0 -3.99733,29.26644 -8.12109,44.03125 -3.23218,11.57256 -7.33281,23.05326 -12.84766,33.85742 -7.31722,14.33522 -15.37259,29.03886 -26.93164,40.91797 -10.96595,11.26959 -24.15012,21.13737 -38.91992,27.09961 -9.71762,3.92278 -20.10635,3.80171 -29.51562,4.79492 -11.4773,1.21149 -28.65733,2.08435 -42.75196,2.65234 L 240,646.36133 l 28.54883,4.56836 29.42187,-0.62891 4.0293,-15.93945 1.80078,18.60156 28.19922,-8.60156 28,-14 46,-48 24,-42 11.77148,-45.12695 c -0.18177,-0.88573 -0.37363,-1.76857 -0.58984,-2.64649 L 430,468.36133 c 5.22851,7.26213 9.04193,15.53836 11.18164,24.22656 l 0.81836,1.77344 -0.22852,0.87305 c 0.0771,0.37549 0.15771,0.7502 0.22852,1.12695 3.84417,20.45338 -1.63581,41.71559 -10.80078,60.40039 C 415.90014,587.95223 390.903,613.21367 372,642.36133 c -15.2078,23.44981 -26.42739,49.4738 -33.07422,76.62109 l 114.26172,-42.8457 23.24023,-51.375 -8.31054,0 46.55469,-86.125 -2.63282,0.0586 -14.7539,-73.77148 -7.63672,3.04297 z m 188.92382,1.28321 -120.875,48.16211 13.98243,69.91992 136.6875,-3.06055 1.75976,-3.55273 c -1.83885,-21.27897 -6.30991,-42.32839 -13.27929,-62.51758 -4.73468,-13.7156 -10.60716,-27.01001 -16.71875,-40.16992 -0.62348,-1.34252 -1.25564,-2.69989 -1.54102,-4.15235 -0.29919,-1.52273 -0.20543,-3.08057 -0.0156,-4.6289 z m 26.78907,121.08789 -129.04102,2.89062 -43.39453,80.2793 168.74414,0 c 0.10008,-0.13471 0.20772,-0.26341 0.30469,-0.40039 2.79526,-3.94873 4.24268,-8.72298 4.85937,-13.52149 0.6167,-4.7985 0.44473,-9.65956 0.26368,-14.49414 -0.6676,-17.82666 -1.45899,-35.64922 -2.375,-53.46484 z m -169.02149,89.16992 1.17774,0.5332 -41.71875,92.2168 176.64062,0 20.58008,-91.73438 c 0.66257,-0.30254 1.30424,-0.64907 1.93359,-1.01562 z m -31.89843,59.0918 -123.29883,46.23632 -0.56055,0.40235 c -1.4426,2.90157 -2.86846,5.81238 -4.27734,8.73047 -6.9967,14.49166 -13.59961,29.24674 -18.03125,44.71679 -4.43165,15.47006 -6.65374,31.7429 -4.75391,47.72266 0.5558,4.67495 1.46169,9.30748 2.70703,13.84766 L 658,846.36133 c -25.2925,-18.29047 -43.75101,-45.81105 -51.07617,-76.15235 -3.66413,-15.17705 -4.6141,-31.00565 -2.78906,-46.51171 l 0.45312,-0.18555 -172.83203,0 z"
       id="path4136"
       inkscape:connector-curvature="0"
       sodipodi:nodetypes="ccccccccccccccccccccccccsssssccssssssscssccsccsscccsssccccsssssssccccsssssccccccccccccccccsssccccccccccccccsssccccccssccccccccccccsssccsccccc" />
    <rect
       style="opacity:1;fill:#000000;fill-opacity:1;stroke:none;stroke-width:6;stroke-linecap:round;stroke-linejoin:round;stroke-miterlimit:4;stroke-dasharray:none;stroke-dashoffset:0;stroke-opacity:1"
       id="rect4140"
       width="360.22076"
       height="91.14827"
       x="295.77924"
       y="857.21393" />
  </g>
</svg>
